<?xml version="1.0" encoding="UTF-8" standalone="no"?>
<!-- Created with Inkscape (http://www.inkscape.org/) -->

<svg
   xmlns:dc="http://purl.org/dc/elements/1.1/"
   xmlns:cc="http://creativecommons.org/ns#"
   xmlns:rdf="http://www.w3.org/1999/02/22-rdf-syntax-ns#"
   xmlns:svg="http://www.w3.org/2000/svg"
   xmlns="http://www.w3.org/2000/svg"
   xmlns:sodipodi="http://sodipodi.sourceforge.net/DTD/sodipodi-0.dtd"
   xmlns:inkscape="http://www.inkscape.org/namespaces/inkscape"
   width="285.24634mm"
   height="120.0676mm"
   viewBox="0 0 285.24634 120.0676"
   version="1.1"
   id="svg8"
   inkscape:version="0.92.5 (2060ec1f9f, 2020-04-08)"
   sodipodi:docname="all-icons.svg">
  <defs
     id="defs2" />
  <sodipodi:namedview
     id="base"
     pagecolor="#ffffff"
     bordercolor="#666666"
     borderopacity="1.0"
     inkscape:pageopacity="0.0"
     inkscape:pageshadow="2"
     inkscape:zoom="0.25"
     inkscape:cx="609.77906"
     inkscape:cy="206.42559"
     inkscape:document-units="px"
     inkscape:current-layer="layer1"
     showgrid="false"
     inkscape:showpageshadow="false"
     showborder="false"
     inkscape:window-width="1916"
     inkscape:window-height="983"
     inkscape:window-x="2"
     inkscape:window-y="63"
     inkscape:window-maximized="1" />
  <metadata
     id="metadata5">
    <rdf:RDF>
      <cc:Work
         rdf:about="">
        <dc:format>image/svg+xml</dc:format>
        <dc:type
           rdf:resource="http://purl.org/dc/dcmitype/StillImage" />
        <dc:title></dc:title>
      </cc:Work>
    </rdf:RDF>
  </metadata>
  <g
     inkscape:label="Layer 1"
     inkscape:groupmode="layer"
     id="layer1"
     style="opacity:1"
     transform="translate(119.56531,-77.951607)">
    <g
       id="g1120">
      <path
         inkscape:connector-curvature="0"
         id="path834"
         d="m -35.732986,137.98541 a 23.79826,23.79826 0 0 1 -23.79826,23.79826 23.79826,23.79826 0 0 1 -23.79826,-23.79826 23.79826,23.79826 0 0 1 23.79826,-23.79826 23.79826,23.79826 0 0 1 23.79826,23.79826 z"
         style="opacity:1;fill:#d5c187;fill-opacity:1;stroke:#ffffff;stroke-width:0;stroke-linecap:round;stroke-linejoin:round;stroke-miterlimit:4;stroke-dasharray:none;stroke-opacity:1" />
      <g
         style="fill:#dfb331;fill-opacity:1"
         transform="translate(3.170625e-6,-2.2187618e-4)"
         id="g1091">
        <path
           style="opacity:1;fill:#dfb331;fill-opacity:1;stroke:#ffffff;stroke-width:0;stroke-linecap:round;stroke-linejoin:round;stroke-miterlimit:4;stroke-dasharray:none;stroke-opacity:1"
           d="m -225,294.62109 a 226.8995,226.8995 0 0 0 -6.64258,0.23438 v 112.5957 A 114.30444,114.30444 0 0 1 -225,407.2168 a 114.30444,114.30444 0 0 1 6.64258,0.33203 V 294.95312 A 226.8995,226.8995 0 0 0 -225,294.62109 Z"
           transform="scale(0.26458333)"
           id="rect836"
           inkscape:connector-curvature="0" />
        <path
           style="opacity:1;fill:#dfb331;fill-opacity:1;stroke:#ffffff;stroke-width:0;stroke-linecap:round;stroke-linejoin:round;stroke-miterlimit:4;stroke-dasharray:none;stroke-opacity:1"
           d="m -231.64258,635.49219 v 112.5957 a 226.8995,226.8995 0 0 0 6.64258,0.33203 226.8995,226.8995 0 0 0 6.64258,-0.23437 V 635.58984 a 114.30444,114.30444 0 0 1 -6.64258,0.23438 114.30444,114.30444 0 0 1 -6.64258,-0.33203 z"
           transform="scale(0.26458333)"
           id="rect883"
           inkscape:connector-curvature="0" />
        <path
           style="opacity:1;fill:#dfb331;fill-opacity:1;stroke:#ffffff;stroke-width:0;stroke-linecap:round;stroke-linejoin:round;stroke-miterlimit:4;stroke-dasharray:none;stroke-opacity:1"
           d="m -117.38281,321.83398 -56.38086,97.6543 a 114.30444,114.30444 0 0 1 11.52929,6.60352 l 56.24805,-97.42188 a 226.8995,226.8995 0 0 0 -11.39648,-6.83594 z"
           transform="scale(0.26458333)"
           id="rect889"
           inkscape:connector-curvature="0" />
        <path
           style="opacity:1;fill:#dfb331;fill-opacity:1;stroke:#ffffff;stroke-width:0;stroke-linecap:round;stroke-linejoin:round;stroke-miterlimit:4;stroke-dasharray:none;stroke-opacity:1"
           d="m -287.76562,616.94727 -56.24805,97.42187 a 226.8995,226.8995 0 0 0 11.39648,6.83594 l 56.38086,-97.65235 a 114.30444,114.30444 0 0 1 -11.52929,-6.60546 z"
           transform="scale(0.26458333)"
           id="rect891"
           inkscape:connector-curvature="0" />
        <path
           style="opacity:1;fill:#dfb331;fill-opacity:1;stroke:#ffffff;stroke-width:0;stroke-linecap:round;stroke-linejoin:round;stroke-miterlimit:4;stroke-dasharray:none;stroke-opacity:1"
           d="m -32.048828,402.44922 -97.498052,56.28906 a 114.30444,114.30444 0 0 1 6.66797,11.49414 l 97.44141,-56.25781 a 226.8995,226.8995 0 0 0 -6.611328,-11.52539 z"
           transform="scale(0.26458333)"
           id="rect895"
           inkscape:connector-curvature="0" />
        <path
           style="opacity:1;fill:#dfb331;fill-opacity:1;stroke:#ffffff;stroke-width:0;stroke-linecap:round;stroke-linejoin:round;stroke-miterlimit:4;stroke-dasharray:none;stroke-opacity:1"
           d="m -327.12109,572.80664 -97.44141,56.25781 a 226.8995,226.8995 0 0 0 6.61133,11.52539 l 97.49805,-56.28906 a 114.30444,114.30444 0 0 1 -6.66797,-11.49414 z"
           transform="scale(0.26458333)"
           id="rect897"
           inkscape:connector-curvature="0" />
        <path
           style="opacity:1;fill:#dfb331;fill-opacity:1;stroke:#ffffff;stroke-width:0;stroke-linecap:round;stroke-linejoin:round;stroke-miterlimit:4;stroke-dasharray:none;stroke-opacity:1"
           d="m -110.92969,514.87695 a 114.30444,114.30444 0 0 1 0.23438,6.64258 114.30444,114.30444 0 0 1 -0.33203,6.64453 H 1.5683594 a 226.8995,226.8995 0 0 0 0.3320312,-6.64453 226.8995,226.8995 0 0 0 -0.234375,-6.64258 z"
           transform="scale(0.26458333)"
           id="rect901"
           inkscape:connector-curvature="0" />
        <path
           style="opacity:1;fill:#dfb331;fill-opacity:1;stroke:#ffffff;stroke-width:0;stroke-linecap:round;stroke-linejoin:round;stroke-miterlimit:4;stroke-dasharray:none;stroke-opacity:1"
           d="m -451.56836,514.87695 a 226.8995,226.8995 0 0 0 -0.33203,6.64258 226.8995,226.8995 0 0 0 0.23437,6.64453 h 112.59571 a 114.30444,114.30444 0 0 1 -0.23438,-6.64453 114.30444,114.30444 0 0 1 0.33203,-6.64258 z"
           transform="scale(0.26458333)"
           id="rect903"
           inkscape:connector-curvature="0" />
        <path
           style="opacity:1;fill:#dfb331;fill-opacity:1;stroke:#ffffff;stroke-width:0;stroke-linecap:round;stroke-linejoin:round;stroke-miterlimit:4;stroke-dasharray:none;stroke-opacity:1"
           d="m -122.9668,572.75586 a 114.30444,114.30444 0 0 1 -6.60547,11.5293 l 97.421879,56.24804 a 226.8995,226.8995 0 0 0 6.835938,-11.39648 z"
           transform="scale(0.26458333)"
           id="rect907"
           inkscape:connector-curvature="0" />
        <path
           style="opacity:1;fill:#dfb331;fill-opacity:1;stroke:#ffffff;stroke-width:0;stroke-linecap:round;stroke-linejoin:round;stroke-miterlimit:4;stroke-dasharray:none;stroke-opacity:1"
           d="m -417.84961,402.50586 a 226.8995,226.8995 0 0 0 -6.83594,11.39648 l 97.65235,56.38086 a 114.30444,114.30444 0 0 1 6.60547,-11.52929 z"
           transform="scale(0.26458333)"
           id="rect909"
           inkscape:connector-curvature="0" />
        <path
           style="opacity:1;fill:#dfb331;fill-opacity:1;stroke:#ffffff;stroke-width:0;stroke-linecap:round;stroke-linejoin:round;stroke-miterlimit:4;stroke-dasharray:none;stroke-opacity:1"
           d="m -162.21875,616.97266 a 114.30444,114.30444 0 0 1 -11.49414,6.66796 l 56.25781,97.44141 a 226.8995,226.8995 0 0 0 11.52539,-6.61133 z"
           transform="scale(0.26458333)"
           id="rect913"
           inkscape:connector-curvature="0" />
        <path
           style="opacity:1;fill:#dfb331;fill-opacity:1;stroke:#ffffff;stroke-width:0;stroke-linecap:round;stroke-linejoin:round;stroke-miterlimit:4;stroke-dasharray:none;stroke-opacity:1"
           d="m -332.54492,321.95703 a 226.8995,226.8995 0 0 0 -11.52735,6.61328 l 56.29102,97.4961 a 114.30444,114.30444 0 0 1 11.49414,-6.66602 z"
           transform="scale(0.26458333)"
           id="rect915"
           inkscape:connector-curvature="0" />
      </g>
    </g>
    <g
       id="g1123">
      <path
         inkscape:connector-curvature="0"
         id="path1099"
         d="m 78.678003,155.2527 a 46.620616,46.620616 0 0 0 63.684947,17.06432 46.620616,46.620616 0 0 0 17.06432,-63.68495 46.620616,46.620616 0 0 0 -29.13727,-21.882897 46.620616,46.620616 0 0 1 -18.17002,61.527537 46.620616,46.620616 0 0 1 -34.547674,4.81859 46.620616,46.620616 0 0 0 1.105697,2.1574 z"
         style="opacity:1;fill:#7f8e92;fill-opacity:1;stroke:#ffffff;stroke-width:0;stroke-linecap:round;stroke-linejoin:round;stroke-miterlimit:4;stroke-dasharray:none;stroke-opacity:1" />
    </g>
  </g>
</svg>
